# xmcd
#
# Track frame offsets:
#	150
#	28649
#	52515
#	78047
#	80909
#
# Disc length: 1328 seconds
#
# Revision: 0
# Processed by: cddbd v1.5.1PL0 Copyright (c) Steve Scherf et al.
# Submitted via: MusicWizard 7.1.1b
#
DISCID=2a052e05
DTITLE=Various Artist - Concert For George [CD 2/2)
DYEAR=2003
DGENRE=BluesRock
TTITLE0=Eric and Paul McCartney - While My Guitar Gently Weeps
TTITLE1=Billy Preston - My Sweet Lord
TTITLE2=Eric and Band - Wah Wah
TTITLE3=Dhani - Speech
TTITLE4=Joe Brown - I'll See You In My Dreams
EXTD=Über analogen Ausgang von DVD
EXTT0=
EXTT1=
EXTT2=
EXTT3=
EXTT4=
PLAYORDER=
